<?xml version="1.0" encoding="utf-8"?><svg xmlns="http://www.w3.org/2000/svg" xmlns:xlink="http://www.w3.org/1999/xlink"><symbol viewBox="0 0 12 8" id="icon-arrow" xmlns="http://www.w3.org/2000/svg"><path d="m6.71 6.83 4.24-4.24a1 1 0 0 0-.705-1.71 1 1 0 0 0-.705.29L6 4.71 2.46 1.17a1 1 0 0 0-1.41 0 1 1 0 0 0-.29.71 1 1 0 0 0 .29.71l4.24 4.24a1 1 0 0 0 1.42 0Z"/></symbol><symbol viewBox="0 0 50 50" id="icon-arrow-circle" xmlns="http://www.w3.org/2000/svg"><path d="M23.225 34.275a2.5 2.5 0 0 0 .825.525 2.5 2.5 0 0 0 1.9 0 2.5 2.5 0 0 0 .825-.525l7.5-7.5a2.51 2.51 0 1 0-3.55-3.55l-3.225 3.25V17.5a2.5 2.5 0 0 0-5 0v8.975l-3.225-3.25a2.5 2.5 0 0 0-3.55 0 2.5 2.5 0 0 0 0 3.55l7.5 7.5ZM25 50A25 25 0 1 0 25-.001 25 25 0 0 0 25 50Zm0-45a20 20 0 1 1 0 40 20 20 0 0 1 0-40Z"/></symbol><symbol viewBox="0 0 13 12" id="icon-arrow-inline" xmlns="http://www.w3.org/2000/svg"><path d="M1.497 5h7.59l-3.3-3.29A1.004 1.004 0 0 1 7.207.29l5 5a1 1 0 0 1 .21.33 1 1 0 0 1 0 .76 1 1 0 0 1-.21.33l-5 5a.998.998 0 0 1-1.42 0 .999.999 0 0 1 0-1.42L9.087 7h-7.59a1 1 0 0 1 0-2Z"/></symbol><symbol viewBox="0 0 12 12" id="icon-arrow-side" xmlns="http://www.w3.org/2000/svg"><path d="M11.92.62a1 1 0 0 0-.54-.54A1 1 0 0 0 11 0H1a1 1 0 0 0 0 2h7.59l-8.3 8.29a1 1 0 0 0 .325 1.639 1 1 0 0 0 1.095-.219L10 3.41V11a1 1 0 0 0 2 0V1a.997.997 0 0 0-.08-.38Z"/></symbol><symbol viewBox="0 0 20 20" id="icon-available" xmlns="http://www.w3.org/2000/svg"><path d="m12.72 6.79-4.29 4.3-1.65-1.65a1 1 0 1 0-1.41 1.41l2.35 2.36a1 1 0 0 0 1.41 0l5-5a1 1 0 1 0-1.41-1.42ZM10 0a10 10 0 1 0 0 20 10 10 0 0 0 0-20Zm0 18a8 8 0 1 1 0-16 8 8 0 0 1 0 16Z"/></symbol><symbol viewBox="0 0 22 22" id="icon-calendar" xmlns="http://www.w3.org/2000/svg"><path d="M18.7 2.2h-2.2V1.1a1.1 1.1 0 0 0-2.2 0v1.1H7.7V1.1a1.1 1.1 0 1 0-2.2 0v1.1H3.3A3.3 3.3 0 0 0 0 5.5v13.2A3.3 3.3 0 0 0 3.3 22h15.4a3.3 3.3 0 0 0 3.3-3.3V5.5a3.3 3.3 0 0 0-3.3-3.3Zm1.1 16.5a1.1 1.1 0 0 1-1.1 1.1H3.3a1.1 1.1 0 0 1-1.1-1.1V11h17.6v7.7Zm0-9.9H2.2V5.5a1.1 1.1 0 0 1 1.1-1.1h2.2v1.1a1.1 1.1 0 1 0 2.2 0V4.4h6.6v1.1a1.1 1.1 0 0 0 2.2 0V4.4h2.2a1.1 1.1 0 0 1 1.1 1.1v3.3Z"/></symbol><symbol viewBox="0 0 36 36" id="icon-cart" xmlns="http://www.w3.org/2000/svg"><path d="M21.196 28.223c.465 0 .912-.184 1.241-.511.33-.327.515-.77.515-1.233v-3.49c0-.462-.185-.905-.515-1.232a1.762 1.762 0 0 0-2.483 0c-.33.327-.515.77-.515 1.233v3.489c0 .462.185.906.515 1.233.33.327.776.51 1.242.51Zm-7.026 0c.466 0 .913-.184 1.242-.511.33-.327.515-.77.515-1.233v-3.49c0-.462-.185-.905-.515-1.232a1.762 1.762 0 0 0-2.484 0c-.329.327-.514.77-.514 1.233v3.489c0 .462.185.906.514 1.233.33.327.777.51 1.242.51ZM29.977 7.29h-2.424l-3.038-6.017a1.745 1.745 0 0 0-1.012-.966 1.767 1.767 0 0 0-1.962.524 1.741 1.741 0 0 0-.389 1.34c.032.237.112.466.237.672l2.23 4.447H11.747l2.23-4.447c.17-.407.18-.863.026-1.276a1.749 1.749 0 0 0-.855-.952 1.767 1.767 0 0 0-2.297.658L7.812 7.29H5.39a5.29 5.29 0 0 0-3.374 1.281 5.203 5.203 0 0 0-1.056 6.657 5.262 5.262 0 0 0 2.814 2.249l1.3 13.012a5.22 5.22 0 0 0 1.717 3.367 5.29 5.29 0 0 0 3.552 1.343h14.717a5.29 5.29 0 0 0 3.552-1.343 5.221 5.221 0 0 0 1.717-3.367l1.3-13.012a5.262 5.262 0 0 0 2.818-2.256 5.203 5.203 0 0 0-1.08-6.666 5.29 5.29 0 0 0-3.389-1.265Zm-3.179 22.85a1.74 1.74 0 0 1-.572 1.123c-.325.29-.747.45-1.184.447H10.324a1.763 1.763 0 0 1-1.184-.447 1.74 1.74 0 0 1-.572-1.122L7.32 17.757h20.724l-1.247 12.384Zm3.18-15.872H5.387c-.465 0-.912-.184-1.241-.511a1.738 1.738 0 0 1 0-2.467c.33-.327.776-.511 1.242-.511h24.588c.466 0 .913.184 1.242.51a1.738 1.738 0 0 1 0 2.468c-.33.327-.776.51-1.242.51Z"/></symbol><symbol viewBox="0 0 20 20" id="icon-catalog" xmlns="http://www.w3.org/2000/svg"><path d="M19 1.475h-5.123a1 1 0 0 0-1 1v5.123a1 1 0 0 0 1 1H19a1 1 0 0 0 1-1V2.475a1 1 0 0 0-1-1ZM9.366 4.33 5.744.706a1 1 0 0 0-1.414 0L.707 4.33a1 1 0 0 0 0 1.415L4.33 9.366a1 1 0 0 0 1.414 0l3.622-3.622a1 1 0 0 0 0-1.415ZM7.598 12.877H2.475a1 1 0 0 0-1 1V19a1 1 0 0 0 1 1h5.123a1 1 0 0 0 1-1v-5.123a1 1 0 0 0-1-1ZM19 12.877h-5.123a1 1 0 0 0-1 1V19a1 1 0 0 0 1 1H19a1 1 0 0 0 1-1v-5.123a1 1 0 0 0-1-1Z"/></symbol><symbol viewBox="0 0 21 20" id="icon-chat" xmlns="http://www.w3.org/2000/svg"><path d="M11 0A10 10 0 0 0 1 10a9.89 9.89 0 0 0 2.26 6.33l-2 2a1 1 0 0 0-.21 1.09A1 1 0 0 0 2 20h9a10 10 0 0 0 0-20Zm0 18H4.41l.93-.93a1 1 0 0 0 0-1.41A8 8 0 1 1 11 18Z"/></symbol><symbol viewBox="0 0 20 20" id="icon-credit" xmlns="http://www.w3.org/2000/svg"><path d="M10 0C4.5 0 0 4.5 0 10s4.5 10 10 10 10-4.5 10-10S15.5 0 10 0Zm0 2c4 0 7.4 3 7.9 7H10V2Zm4 14.9L10.6 11H18c-.4 2.5-1.8 4.7-4 5.9Z"/></symbol><symbol viewBox="0 0 12 25" id="icon-facebook" xmlns="http://www.w3.org/2000/svg"><path d="M11.68 4.16H8.96c-.48 0-1.12.64-1.12.96V8h3.84c-.16 2.08-.48 4.16-.48 4.16H7.84v12.16H2.72V12.16H.32V8h2.4V4.64C2.72 4 2.56 0 7.84 0h3.68v4.16h.16Z"/></symbol><symbol viewBox="0 0 38 33" id="icon-heart" xmlns="http://www.w3.org/2000/svg"><path d="M33.788 4.011a11.419 11.419 0 0 0-14.813-1.162A11.382 11.382 0 0 0 4.162 20.06L15.435 31.35a5.047 5.047 0 0 0 7.08 0L33.788 20.06a11.383 11.383 0 0 0 0-16.048Zm-2.56 13.543L19.956 28.826a1.38 1.38 0 0 1-1.96 0L6.722 17.499a7.788 7.788 0 0 1 0-10.892 7.751 7.751 0 0 1 10.892 0 1.815 1.815 0 0 0 2.578 0 7.752 7.752 0 0 1 10.892 0 7.788 7.788 0 0 1 .145 10.892v.055Z"/></symbol><symbol viewBox="0 0 32 32" id="icon-info" xmlns="http://www.w3.org/2000/svg"><path d="M16 9.333c.736 0 1.333.597 1.333 1.333v6.667a1.333 1.333 0 0 1-2.666 0v-6.667c0-.736.597-1.333 1.333-1.333zM16 22.667A1.333 1.333 0 1 0 16 20a1.333 1.333 0 0 0 0 2.667z"/><path d="M16 2.667C8.636 2.667 2.667 8.637 2.667 16S8.637 29.333 16 29.333c7.364 0 13.333-5.97 13.333-13.333S23.363 2.667 16 2.667zM5.333 16c0-5.891 4.776-10.667 10.667-10.667S26.667 10.109 26.667 16 21.891 26.667 16 26.667 5.333 21.891 5.333 16z"/></symbol><symbol viewBox="0 0 24 24" id="icon-instagram" xmlns="http://www.w3.org/2000/svg"><path d="M19.68 3.2c.32.32.48.8.48 1.28s-.16.96-.48 1.28c-.32.32-.64.48-1.12.48-.48 0-.96-.16-1.28-.48-.32-.32-.48-.8-.48-1.28s.16-.96.48-1.28c.32-.32.8-.48 1.28-.48.32 0 .8.16 1.12.48Zm-1.336 8.96C18.344 16 16 18.5 12 18.5S5.687 16 5.687 12.16c0-4 2.313-6.4 6.313-6.4 4 0 6.344 2.4 6.344 6.4Zm5.496-4c0-2.24-.8-4.16-2.4-5.76C19.84.8 17.92 0 15.68 0H8.16C5.92 0 4 .8 2.4 2.4.8 4 0 5.92 0 8.16v7.52c0 2.24.8 4.16 2.4 5.76 1.6 1.6 3.52 2.4 5.76 2.4h7.52c2.24 0 4.16-.8 5.76-2.4 1.6-1.6 2.4-3.52 2.4-5.76V8.16Z"/></symbol><symbol viewBox="0 0 20 16" id="icon-mail" xmlns="http://www.w3.org/2000/svg"><path d="M17 0H3a3 3 0 0 0-3 3v10a3 3 0 0 0 3 3h14a3 3 0 0 0 3-3V3a3 3 0 0 0-3-3ZM3 2h14a1 1 0 0 1 1 1l-8 4.88L2 3a1 1 0 0 1 1-1Zm15 11a1 1 0 0 1-1 1H3a1 1 0 0 1-1-1V5.28l7.48 4.57a1 1 0 0 0 1 0L18 5.28V13Z"/></symbol><symbol viewBox="0 0 21 19" id="icon-map" xmlns="http://www.w3.org/2000/svg"><path d="m19.82 2.05-6-2h-.07a.7.7 0 0 0-.14 0h-.43L7.5 2 1.82.05a1 1 0 0 0-.9.14A1 1 0 0 0 .5 1v14a1 1 0 0 0 .68.95l6 2c.201.066.419.066.62 0l5.7-1.9L19.18 18c.106.015.214.015.32 0a.94.94 0 0 0 .58-.19 1.002 1.002 0 0 0 .42-.81V3a1 1 0 0 0-.68-.95ZM6.5 15.61l-4-1.33V2.39l4 1.33v11.89Zm6-1.33-4 1.33V3.72l4-1.33v11.89Zm6 1.33-4-1.33V2.39l4 1.33v11.89Z"/></symbol><symbol viewBox="0 0 20 20" id="icon-phone" xmlns="http://www.w3.org/2000/svg"><path d="M17.408 11c-.22 0-.45-.07-.67-.12-.445-.1-.883-.23-1.31-.39a2 2 0 0 0-2.48 1l-.22.46a13.176 13.176 0 0 1-2.67-2 13.171 13.171 0 0 1-2-2.67l.46-.21a2 2 0 0 0 1-2.48 10.47 10.47 0 0 1-.39-1.32c-.05-.22-.09-.45-.12-.67a3 3 0 0 0-3-2.49h-3.01a3 3 0 0 0-2.24 1 3 3 0 0 0-.73 2.4 19.07 19.07 0 0 0 5.41 11 19.07 19.07 0 0 0 11 5.41c.13.01.26.01.39 0a3 3 0 0 0 2.74-1.773c.171-.386.26-.804.26-1.227v-3a3 3 0 0 0-2.42-2.92Zm.49 6a.998.998 0 0 1-.33.74.999.999 0 0 1-.82.25 17.16 17.16 0 0 1-9.87-4.84 17.16 17.16 0 0 1-4.88-9.9 1 1 0 0 1 .59-1.065 1 1 0 0 1 .41-.085h3a1 1 0 0 1 1 .78c0 .27.09.55.15.82a11 11 0 0 0 .46 1.54l-1.4.66a1 1 0 0 0-.52.56 1 1 0 0 0 0 .76 14.49 14.49 0 0 0 7 7 1 1 0 0 0 .76 0 1 1 0 0 0 .56-.52l.63-1.4a12.415 12.415 0 0 0 2.39.61 1 1 0 0 1 .78 1l.09 3.09Zm-5.9-17h-.7a1.004 1.004 0 0 0 .17 2h.53a6 6 0 0 1 6 6v.53a1 1 0 0 0 .91 1.08h.08a1 1 0 0 0 1-.91V8a8 8 0 0 0-7.99-8Zm2 8a1 1 0 0 0 2 0 4 4 0 0 0-4-4 1 1 0 0 0 0 2 2 2 0 0 1 2 2Z"/></symbol><symbol viewBox="0 0 18 22" id="icon-pin" xmlns="http://www.w3.org/2000/svg"><path d="M8.8 0A8.8 8.8 0 0 0 0 8.8c0 5.94 7.755 12.65 8.085 12.936a1.1 1.1 0 0 0 1.43 0C9.9 21.45 17.6 14.74 17.6 8.8A8.8 8.8 0 0 0 8.8 0Zm0 19.415c-2.343-2.2-6.6-6.941-6.6-10.615a6.6 6.6 0 0 1 13.2 0c0 3.674-4.257 8.426-6.6 10.615ZM8.8 4.4a4.4 4.4 0 1 0 0 8.8 4.4 4.4 0 0 0 0-8.8Zm0 6.6a2.2 2.2 0 1 1 0-4.4 2.2 2.2 0 0 1 0 4.4Z"/></symbol><symbol viewBox="0 0 21 20" id="icon-review" xmlns="http://www.w3.org/2000/svg"><path d="M20.21 2.72 17.78.29a1 1 0 0 0-1.41 0l-5.58 5.58a1 1 0 0 0-.29.71V9a1 1 0 0 0 1 1h2.42a1 1 0 0 0 .71-.29l5.58-5.58a1 1 0 0 0 0-1.41ZM13.5 8h-1V7l4.58-4.58 1 1L13.5 8Zm4 2a1 1 0 0 0-1 1 7 7 0 0 1-7 7H3.91l.64-.63a.999.999 0 0 0 0-1.42A7 7 0 0 1 9.5 4a1 1 0 1 0 0-2 9 9 0 0 0-7 14.62L.79 18.29a1 1 0 0 0-.21 1.09 1 1 0 0 0 .92.62h8a9 9 0 0 0 9-9 1 1 0 0 0-1-1Z"/></symbol><symbol viewBox="0 0 24 24" id="icon-sale" xmlns="http://www.w3.org/2000/svg"><path d="M20.49 3.51c-4.682-4.68-12.298-4.68-16.98 0-4.68 4.682-4.68 12.298 0 16.98A11.97 11.97 0 0 0 12 24a11.97 11.97 0 0 0 8.49-3.51c4.68-4.682 4.68-12.298 0-16.98ZM7.727 5.648A2.333 2.333 0 0 1 9.39 4.96c.628 0 1.219.245 1.662.689.444.443.688 1.033.688 1.66 0 .628-.244 1.218-.688 1.662a2.333 2.333 0 0 1-1.662.688 2.333 2.333 0 0 1-1.66-.688 2.333 2.333 0 0 1-.689-1.661c0-.628.244-1.218.688-1.662Zm.396 11.337a.78.78 0 0 1-1.108 0 .783.783 0 0 1 0-1.108l8.86-8.86a.783.783 0 1 1 1.108 1.108l-8.86 8.86Zm8.67.854a2.333 2.333 0 0 1-1.662.688 2.333 2.333 0 0 1-1.661-.688 2.332 2.332 0 0 1-.688-1.661c0-.628.244-1.218.688-1.662a2.333 2.333 0 0 1 1.662-.688c.627 0 1.218.245 1.661.689.444.444.688 1.033.688 1.66 0 .628-.244 1.218-.688 1.662Z"/></symbol><symbol viewBox="0 0 24 12" id="icon-scroll" xmlns="http://www.w3.org/2000/svg"><path d="M6.716.29a1 1 0 0 0-1.42 0l-5 5a1 1 0 0 0 0 1.42l5 5a.998.998 0 0 0 1.42 0 .999.999 0 0 0 0-1.42L2.416 6l4.3-4.29a1 1 0 0 0 0-1.42Zm17 5-5-5a1.003 1.003 0 1 0-1.42 1.42l4.3 4.29-4.3 4.29a1.001 1.001 0 0 0 .325 1.639 1 1 0 0 0 1.095-.22l5-5a1.001 1.001 0 0 0 0-1.42Z"/></symbol><symbol viewBox="0 0 24 24" id="icon-search" xmlns="http://www.w3.org/2000/svg"><g clip-path="url(#ava)"><path d="m22.677 22.061-4.264-4.233a10.357 10.357 0 0 0-1.166-14.185 10.34 10.34 0 0 0-14.217.389 10.356 10.356 0 0 0 6.466 17.637 10.338 10.338 0 0 0 7.32-2.242l4.229 4.233a1.15 1.15 0 0 0 1.632 0 1.15 1.15 0 0 0 0-1.599Zm-12.31-2.634a8.04 8.04 0 0 1-7.432-4.97A8.057 8.057 0 0 1 4.68 5.683a8.043 8.043 0 0 1 13.734 5.693 8.054 8.054 0 0 1-2.356 5.693 8.042 8.042 0 0 1-5.69 2.358Z"/></g><defs><clipPath id="ava"><path d="M0 0h24v24H0z"/></clipPath></defs></symbol><symbol viewBox="0 0 21 20" id="icon-star" xmlns="http://www.w3.org/2000/svg"><path d="M20 7.641c.1-.5-.3-1.1-.8-1.1l-5.7-.8-2.6-5.2c-.1-.2-.2-.3-.4-.4-.5-.3-1.1-.1-1.4.4l-2.5 5.2-5.7.8c-.3 0-.5.1-.6.3-.4.4-.4 1 0 1.4l4.1 4-1 5.7c0 .2 0 .4.1.6.3.5.9.7 1.4.4l5.1-2.7 5.1 2.7c.1.1.3.1.5.1h.2c.5-.1.9-.6.8-1.2l-1-5.7 4.1-4c.2-.1.3-.3.3-.5Z"/></symbol><symbol viewBox="0 0 18 15" id="icon-telegram" xmlns="http://www.w3.org/2000/svg"><path d="m17.299.629-2.68 13.508s-.374.936-1.405.487l-6.182-4.74-2.248-1.087L.999 7.523s-.58-.206-.637-.656c-.056-.45.656-.693.656-.693L16.062.273S17.3-.271 17.3.629Z"/><path d="M6.557 13.985s-.18-.017-.405-.73c-.225-.711-1.368-4.458-1.368-4.458l9.086-5.77s.525-.319.506 0c0 0 .094.056-.187.318S7.05 9.771 7.05 9.771"/><path d="m9.402 11.701-2.445 2.23s-.191.145-.4.054l.468-4.142"/></symbol><symbol class="aybi aybi-twitter-x" viewBox="0 0 16 16" id="icon-twitter-x" xmlns="http://www.w3.org/2000/svg"><path d="M12.6.75h2.454l-5.36 6.142L16 15.25h-4.937l-3.867-5.07-4.425 5.07H.316l5.733-6.57L0 .75h5.063l3.495 4.633L12.601.75Zm-.86 13.028h1.36L4.323 2.145H2.865z"/></symbol><symbol viewBox="0 0 18 18" id="icon-viber" xmlns="http://www.w3.org/2000/svg"><path d="m16.935 4.542-.005-.02c-.4-1.62-2.207-3.358-3.867-3.72l-.019-.004a21.49 21.49 0 0 0-8.088 0l-.02.004c-1.658.362-3.465 2.1-3.867 3.72l-.004.02a15.833 15.833 0 0 0 0 6.82l.004.02c.385 1.552 2.057 3.21 3.654 3.667v1.808c0 .655.798.976 1.252.504l1.832-1.905a21.56 21.56 0 0 0 5.237-.35l.02-.003c1.659-.362 3.465-2.1 3.866-3.72l.005-.02a15.835 15.835 0 0 0 0-6.82Zm-1.45 6.492c-.268 1.058-1.64 2.372-2.73 2.615a20.029 20.029 0 0 1-4.302.347.102.102 0 0 0-.076.031L7.039 15.4l-1.423 1.461a.167.167 0 0 1-.287-.115V13.75a.103.103 0 0 0-.084-.101c-1.09-.243-2.462-1.557-2.73-2.614a14.367 14.367 0 0 1 0-6.164c.268-1.058 1.64-2.372 2.73-2.615a20.015 20.015 0 0 1 7.51 0c1.091.243 2.462 1.557 2.73 2.615a14.35 14.35 0 0 1 0 6.163Z"/><path d="M11.371 12.418c-.167-.051-.327-.085-.475-.147-1.537-.638-2.952-1.46-4.072-2.721-.637-.717-1.136-1.527-1.557-2.384-.2-.406-.369-.828-.54-1.248-.157-.382.074-.777.316-1.066.228-.27.521-.477.839-.63.248-.119.492-.05.673.16.392.454.751.932 1.042 1.458.18.324.13.72-.194.94-.08.054-.151.117-.224.177a.735.735 0 0 0-.17.178.489.489 0 0 0-.032.43c.4 1.099 1.074 1.954 2.18 2.414.178.074.355.16.56.136.34-.04.452-.415.691-.61.234-.192.533-.194.785-.035.252.16.497.33.74.504.238.17.475.336.695.53.212.186.284.43.165.683-.218.463-.535.848-.992 1.094-.13.07-.284.092-.43.137.146-.045-.167-.051 0 0ZM9.004 3.693c2.01.056 3.662 1.39 4.016 3.378.06.339.081.685.108 1.029.011.144-.07.281-.226.283-.162.002-.234-.133-.245-.277-.02-.286-.035-.573-.074-.857A3.592 3.592 0 0 0 9.69 4.247c-.224-.04-.454-.051-.681-.075-.144-.015-.332-.024-.364-.202-.026-.15.1-.269.243-.277.038-.002.077 0 .116 0 2.01.056-.039 0 0 0Z"/><path d="M12.06 7.653c-.004.026-.006.085-.02.14-.054.202-.36.227-.43.024a.609.609 0 0 1-.024-.195c-.001-.425-.094-.85-.308-1.221-.221-.381-.558-.701-.954-.895a2.74 2.74 0 0 0-.76-.233c-.114-.019-.23-.03-.345-.046-.14-.02-.214-.109-.208-.246.007-.129.1-.222.241-.214a3.16 3.16 0 0 1 1.317.343c.834.442 1.31 1.14 1.45 2.07.006.043.016.084.02.127l.02.346c-.003.025-.008-.137 0 0Z"/><path d="M10.809 7.605c-.168.003-.258-.09-.276-.244-.012-.108-.021-.217-.047-.322a.903.903 0 0 0-.333-.523.873.873 0 0 0-.272-.13c-.123-.037-.252-.027-.374-.057-.134-.033-.208-.14-.187-.266a.241.241 0 0 1 .255-.194c.78.056 1.336.459 1.416 1.376.005.065.012.134-.002.196-.025.105-.104.159-.18.164.076-.005-.168.003 0 0Z"/></symbol><symbol viewBox="0 0 18 18" id="icon-whatsapp" xmlns="http://www.w3.org/2000/svg"><path d="M8.58.354C4.008.572.4 4.38.414 8.957c.004 1.394.34 2.71.935 3.872l-.912 4.425c-.05.24.167.449.404.393l4.336-1.028a8.545 8.545 0 0 0 3.69.896c4.672.071 8.569-3.639 8.714-8.31a8.586 8.586 0 0 0-9-8.85Zm5.174 13.33A6.68 6.68 0 0 1 9 15.653a6.652 6.652 0 0 1-2.992-.701l-.604-.301-2.658.63.56-2.717-.298-.582a6.646 6.646 0 0 1-.73-3.052c0-1.796.698-3.484 1.968-4.754A6.734 6.734 0 0 1 9 2.207c1.796 0 3.484.7 4.754 1.97a6.679 6.679 0 0 1 1.969 4.753c0 1.78-.71 3.495-1.97 4.754Z"/><path d="m13.167 10.792-1.663-.478a.62.62 0 0 0-.614.162l-.407.414a.605.605 0 0 1-.658.14c-.787-.319-2.442-1.79-2.864-2.526a.606.606 0 0 1 .048-.672l.355-.46a.62.62 0 0 0 .076-.629l-.7-1.582a.62.62 0 0 0-.968-.222c-.464.393-1.015.989-1.082 1.65-.118 1.165.382 2.634 2.272 4.398 2.183 2.037 3.93 2.306 5.07 2.03.645-.155 1.16-.782 1.486-1.296a.62.62 0 0 0-.351-.93Z"/></symbol><symbol viewBox="0 0 12 12" id="icon-x" xmlns="http://www.w3.org/2000/svg"><path d="m6.71 6.83 4.24-4.24a1.001 1.001 0 1 0-1.41-1.42L6 4.71 2.46 1.17a1 1 0 0 0-1.41 0 1 1 0 0 0-.29.71 1 1 0 0 0 .29.71l4.24 4.24a1 1 0 0 0 1.42 0Z"/><path d="m6.71 5.175 4.24 4.24a1 1 0 1 1-1.41 1.42L6 7.295l-3.54 3.54a1 1 0 0 1-1.41 0 1 1 0 0 1-.29-.71 1 1 0 0 1 .29-.71l4.24-4.24a1 1 0 0 1 1.42 0Z"/></symbol><symbol viewBox="0 0 22 22" id="icon-x-round" xmlns="http://www.w3.org/2000/svg"><path d="M14.71 7.29a.999.999 0 0 0-1.42 0L11 9.59l-2.29-2.3a1.004 1.004 0 0 0-1.42 1.42L9.59 11l-2.3 2.29a.999.999 0 0 0 0 1.42 1.001 1.001 0 0 0 1.42 0l2.29-2.3 2.29 2.3a1.001 1.001 0 0 0 1.639-.325 1 1 0 0 0-.22-1.095L12.41 11l2.3-2.29a.998.998 0 0 0 0-1.42Zm3.36-3.36A10 10 0 1 0 3.93 18.07 10 10 0 1 0 18.07 3.93Zm-1.41 12.73A8 8 0 1 1 19 11a7.95 7.95 0 0 1-2.34 5.66Z"/></symbol><symbol viewBox="0 0 20 20" id="icon-x-round-fill" xmlns="http://www.w3.org/2000/svg"><path d="M10 0C4.5 0 0 4.5 0 10s4.5 10 10 10 10-4.5 10-10S15.5 0 10 0Zm3.7 12.3c.4.4.4 1 0 1.4-.4.4-1 .4-1.4 0L10 11.4l-2.3 2.3c-.4.4-1 .4-1.4 0-.4-.4-.4-1 0-1.4L8.6 10 6.3 7.7c-.4-.4-.4-1 0-1.4.4-.4 1-.4 1.4 0L10 8.6l2.3-2.3c.4-.4 1-.4 1.4 0 .4.4.4 1 0 1.4L11.4 10l2.3 2.3Z"/></symbol></svg>